# xmcd
#
# Track frame offsets: 
#        150
#        13510
#        27354
#        39527
#        60982
#        77639
#
# Disc length: 1429 seconds
#
# Revision: 0
# Processed by: cddbd v1.5.2PL0 Copyright (c) Steve Scherf et al.
# Submitted via: ExactAudioCopy v1.2
#
DISCID=3b059306
DTITLE=Michael van Merwyk and Bluesoul - Ease My Pain [EP]
DYEAR=2017
DGENRE=Blues
TTITLE0=Blues Keeps Calling My Name
TTITLE1=Happy Man
TTITLE2=Cheeky Darling
TTITLE3=A Soul Ain't Worth a Dime
TTITLE4=I Love Thinking About My Baby
TTITLE5=Easy My Pain
EXTD=
EXTT0=
EXTT1=
EXTT2=
EXTT3=
EXTT4=
EXTT5=
PLAYORDER=
